<svg version="1.1" viewBox="0 0 120 120" xmlns="http://www.w3.org/2000/svg">
 <g fill="#5bb2fa">
  <rect x=".79553" y="7.346" width="93.95" height="16.144" ry="8.0722" stroke-width="1.0032"/>
  <path d="m118.47 15.484a7.8293 7.4478 0 0 1-5.9748 7.2358 7.8293 7.4478 0 0 1-8.8052-3.808 7.8293 7.4478 0 0 1 1.8036-9.0398 7.8293 7.4478 0 0 1 9.6596-0.47435l-4.5124 6.0863z"/>
  <rect x="1.2754" y="35.23" width="93.95" height="16.144" ry="8.0722" stroke-width="1.0032"/>
  <path d="m118.94 43.369a7.8293 7.4478 0 0 1-4.893 6.9042 7.8293 7.4478 0 0 1-8.5632-1.7256 7.8293 7.4478 0 0 1-1.5299-8.1984 7.8293 7.4478 0 0 1 7.4156-4.4239l-0.25876 7.4437z"/>
  <rect x=".66051" y="62.742" width="93.95" height="16.144" ry="7.5207" stroke-width="1.0032"/>
  <path d="m118.33 70.881a7.8293 7.4478 0 0 1-5.1213 6.9881 7.8293 7.4478 0 0 1-8.664-2.154 7.8293 7.4478 0 0 1-0.87214-8.4781l6.8281 3.644z"/>
  <rect x=".97416" y="88.329" width="93.95" height="16.144" ry="6.8373" stroke-width="1.0032"/>
  <path d="m118.64 96.468a7.8293 7.4478 0 0 1-7.7454 7.4473 7.8293 7.4478 0 0 1-7.9114-7.2876l7.8275-0.15969z"/>
 </g>
</svg>
